<svg width="24" height="24" viewBox="0 0 24 24" fill="none" xmlns="http://www.w3.org/2000/svg">
<path d="M5.95265 20.0924L6.51744 19.5989L6.51744 19.5989L5.95265 20.0924ZM3.94535 17.795L3.38056 18.2885L3.38056 18.2885L3.94535 17.795ZM7.12955 14.7189C6.74032 14.5772 6.30994 14.7779 6.16827 15.1671C6.0266 15.5563 6.22729 15.9867 6.61652 16.1284L7.12955 14.7189ZM10.0796 12.5275L11.2767 9.23859L9.86715 8.72556L8.67008 12.0145L10.0796 12.5275ZM12.8571 9.8138L11.4424 13.7007L12.8519 14.2137L14.2666 10.3268L12.8571 9.8138ZM12.3545 8.736C12.7909 8.89484 13.0159 9.37739 12.8571 9.8138L14.2666 10.3268C14.7088 9.11195 14.0824 7.76864 12.8675 7.32646L12.3545 8.736ZM11.2767 9.23859C11.4355 8.80217 11.9181 8.57716 12.3545 8.736L12.8675 7.32646C11.6526 6.88428 10.3093 7.51068 9.86715 8.72556L11.2767 9.23859ZM7.08969 11.4393L10.028 3.36645L8.61842 2.85342L5.68015 10.9262L7.08969 11.4393ZM11.6083 3.94166L8.67008 12.0145L10.0796 12.5275L13.0179 4.45469L11.6083 3.94166ZM11.1058 2.86386C11.5422 3.0227 11.7672 3.50525 11.6083 3.94166L13.0179 4.45469C13.4601 3.23981 12.8337 1.8965 11.6188 1.45432L11.1058 2.86386ZM10.028 3.36645C10.1868 2.93004 10.6693 2.70502 11.1058 2.86386L11.6188 1.45432C10.4039 1.01214 9.0606 1.63854 8.61842 2.85342L10.028 3.36645ZM16.7693 17.6712L16.2656 19.0551L17.6752 19.5681L18.1789 18.1842L16.7693 17.6712ZM11.0747 21.4757L7.19564 20.0638L6.68261 21.4733L10.5617 22.8852L11.0747 21.4757ZM6.51744 19.5989L4.51014 17.3015L3.38056 18.2885L5.38786 20.5859L6.51744 19.5989ZM4.20219 15.6516L5.07292 13.2592L3.66338 12.7462L2.79265 15.1385L4.20219 15.6516ZM7.18775 12.2731L10.3144 13.4111L10.8274 12.0015L7.70078 10.8635L7.18775 12.2731ZM9.5215 15.5895L7.12955 14.7189L6.61652 16.1284L9.00847 16.999L9.5215 15.5895ZM11.0071 14.8967C10.7882 15.4982 10.123 15.8084 9.5215 15.5895L9.00847 16.999C10.3885 17.5013 11.9144 16.7897 12.4167 15.4097L11.0071 14.8967ZM10.3144 13.4111C10.9159 13.63 11.2261 14.2952 11.0071 14.8967L12.4167 15.4097C12.9189 14.0297 12.2074 12.5038 10.8274 12.0015L10.3144 13.4111ZM5.07292 13.2592C5.38459 12.4029 6.33143 11.9614 7.18775 12.2731L7.70078 10.8635C6.066 10.2685 4.25839 11.1114 3.66338 12.7462L5.07292 13.2592ZM4.51014 17.3015C4.11453 16.8487 3.99654 16.2166 4.20219 15.6516L2.79265 15.1385C2.40005 16.2172 2.62529 17.424 3.38056 18.2885L4.51014 17.3015ZM7.19564 20.0638C6.93397 19.9686 6.70066 19.8086 6.51744 19.5989L5.38786 20.5859C5.73764 20.9862 6.18306 21.2915 6.68261 21.4733L7.19564 20.0638ZM16.2656 19.0551C15.5006 21.157 13.1766 22.2407 11.0747 21.4757L10.5617 22.8852C13.442 23.9336 16.6268 22.4485 17.6752 19.5681L16.2656 19.0551ZM15.2977 16.7969L16.386 13.807L14.9764 13.294L13.8882 16.2839L15.2977 16.7969ZM17.9664 14.3822L16.8781 17.3722L18.2876 17.8852L19.3759 14.8953L17.9664 14.3822ZM16.8781 17.3722C16.7193 17.8086 16.2367 18.0336 15.8003 17.8748L15.2873 19.2843C16.5022 19.7265 17.8455 19.1001 18.2876 17.8852L16.8781 17.3722ZM17.4638 13.3044C17.9002 13.4633 18.1252 13.9458 17.9664 14.3822L19.3759 14.8953C19.8181 13.6804 19.1917 12.3371 17.9768 11.8949L17.4638 13.3044ZM16.386 13.807C16.5448 13.3706 17.0274 13.1456 17.4638 13.3044L17.9768 11.8949C16.7619 11.4527 15.4186 12.0791 14.9764 13.294L16.386 13.807ZM13.8882 16.2839C13.446 17.4988 14.0724 18.8421 15.2873 19.2843L15.8003 17.8748C15.3639 17.7159 15.1389 17.2334 15.2977 16.7969L13.8882 16.2839ZM12.7431 14.5127L13.8313 11.5228L12.4218 11.0098L11.3335 13.9997L12.7431 14.5127ZM15.4117 12.098L14.3235 15.0879L15.733 15.601L16.8213 12.611L15.4117 12.098ZM14.3235 15.0879C14.1646 15.5244 13.6821 15.7494 13.2457 15.5905L12.7326 17.0001C13.9475 17.4423 15.2908 16.8159 15.733 15.601L14.3235 15.0879ZM14.9091 11.0202C15.3455 11.1791 15.5706 11.6616 15.4117 12.098L16.8213 12.611C17.2634 11.3962 16.637 10.0529 15.4222 9.61068L14.9091 11.0202ZM13.8313 11.5228C13.9902 11.0864 14.4727 10.8614 14.9091 11.0202L15.4222 9.61068C14.2073 9.1685 12.864 9.79489 12.4218 11.0098L13.8313 11.5228ZM11.3335 13.9997C10.8914 15.2146 11.5178 16.5579 12.7326 17.0001L13.2457 15.5905C12.8093 15.4317 12.5842 14.9491 12.7431 14.5127L11.3335 13.9997Z" fill="#022536"/>
</svg>
