<svg width="25" height="24" viewBox="0 0 25 24" fill="none" xmlns="http://www.w3.org/2000/svg">
<path d="M3.66663 19H1.66663V18C1.66663 16.1362 2.9414 14.57 4.66663 14.126M6.66663 10.8293C5.50143 10.4175 4.66663 9.30623 4.66663 8.00001C4.66663 6.69379 5.50143 5.58255 6.66663 5.17072M21.6666 19H23.6666V18C23.6666 16.1362 22.3919 14.57 20.6666 14.126M18.6666 5.17072C19.8318 5.58255 20.6666 6.69379 20.6666 8.00001C20.6666 9.30623 19.8318 10.4175 18.6666 10.8293M10.6666 14H14.6666C16.8758 14 18.6666 15.7909 18.6666 18V19H6.66663V18C6.66663 15.7909 8.45749 14 10.6666 14ZM15.6666 8C15.6666 9.65685 14.3235 11 12.6666 11C11.0098 11 9.66663 9.65685 9.66663 8C9.66663 6.34315 11.0098 5 12.6666 5C14.3235 5 15.6666 6.34315 15.6666 8Z" stroke="#022536" stroke-width="1.5" stroke-linecap="round" stroke-linejoin="round"/>
</svg>
