<?xml version="1.0" standalone="no"?>
<!DOCTYPE svg PUBLIC "-//W3C//DTD SVG 20010904//EN"
 "http://www.w3.org/TR/2001/REC-SVG-20010904/DTD/svg10.dtd">
<svg version="1.0" xmlns="http://www.w3.org/2000/svg"
 width="1024.000000pt" height="1024.000000pt" viewBox="0 0 1024.000000 1024.000000"
 preserveAspectRatio="xMidYMid meet">
<metadata>
Created by potrace 1.14, written by Peter Selinger 2001-2017
</metadata>
<g transform="translate(0.000000,1024.000000) scale(0.100000,-0.100000)"
fill="#000000" stroke="none">
<path d="M4715 6510 c-176 -37 -339 -108 -496 -215 -52 -35 -95 -62 -97 -60
-2 2 6 46 17 99 12 53 21 105 21 116 0 20 -5 20 -689 20 -648 0 -690 -1 -695
-17 -8 -27 -166 -709 -166 -717 0 -3 101 -6 225 -6 180 0 225 -3 225 -13 0 -8
-103 -461 -230 -1007 -126 -547 -230 -998 -230 -1002 0 -4 211 -8 468 -8 l468
0 193 838 c107 460 197 844 202 853 5 9 43 39 86 67 175 111 334 174 448 176
175 2 264 -94 273 -294 3 -94 1 -106 -172 -853 -97 -417 -176 -764 -176 -772
0 -13 60 -15 467 -13 l466 3 196 846 196 847 65 45 c173 118 354 190 480 190
173 1 263 -109 263 -318 0 -94 -11 -145 -171 -835 -95 -404 -174 -745 -177
-757 l-5 -23 710 0 c390 0 710 2 710 4 0 6 160 689 166 709 5 16 -11 17 -245
17 -166 0 -251 4 -251 10 0 6 52 237 115 513 133 576 145 643 145 788 0 392
-180 646 -535 755 -85 26 -101 28 -285 28 -180 0 -203 -2 -293 -27 -175 -47
-391 -164 -555 -301 -41 -34 -89 -74 -108 -90 -19 -16 -36 -27 -38 -25 -2 2
-21 38 -42 79 -67 129 -201 245 -356 307 -156 64 -408 82 -593 43z"/>
</g>
</svg>
