<?xml version="1.0" standalone="no"?>
<!DOCTYPE svg PUBLIC "-//W3C//DTD SVG 20010904//EN"
 "http://www.w3.org/TR/2001/REC-SVG-20010904/DTD/svg10.dtd">
<svg version="1.0" xmlns="http://www.w3.org/2000/svg"
 width="250.000000pt" height="250.000000pt" viewBox="0 0 250.000000 250.000000"
 preserveAspectRatio="xMidYMid meet">
<metadata>
Created by potrace 1.14, written by Peter Selinger 2001-2017
</metadata>
<g transform="translate(0.000000,250.000000) scale(0.100000,-0.100000)"
fill="#000000" stroke="none">
<path d="M0 1250 l0 -1250 1250 0 1250 0 0 1250 0 1250 -1250 0 -1250 0 0
-1250z m1270 345 c15 -8 44 -33 63 -55 19 -23 37 -37 38 -32 6 14 100 77 139
93 19 8 64 14 100 14 112 -1 178 -51 202 -154 12 -53 7 -88 -41 -298 l-19 -83
57 0 c32 0 60 -2 63 -5 3 -3 -4 -47 -16 -98 l-21 -92 -170 -3 c-93 -1 -174 -1
-181 2 -8 3 1 60 32 193 24 103 43 204 44 223 0 50 -24 80 -63 80 -37 0 -106
-29 -125 -52 -7 -9 -33 -105 -58 -214 -24 -110 -47 -207 -50 -216 -5 -16 -19
-18 -119 -18 -63 0 -116 3 -118 8 -2 4 15 93 39 197 24 105 44 204 44 220 0
45 -25 75 -63 75 -37 0 -106 -29 -125 -53 -8 -9 -34 -103 -58 -209 -24 -106
-46 -203 -49 -215 -5 -22 -9 -23 -125 -23 -66 0 -120 1 -120 3 0 6 111 492
116 510 5 15 -2 17 -54 17 l-59 0 21 93 21 92 179 3 178 2 -7 -32 c-7 -32 -7
-32 11 -17 73 63 216 85 294 44z"/>
</g>
</svg>
